<svg width="49" height="49" viewBox="0 0 49 49" fill="none" xmlns="http://www.w3.org/2000/svg">
<rect width="48.75" height="48.75" rx="24.375" fill="#FCDDDB"/>
<path d="M36.2279 24.0599C36.1427 23.6161 35.7545 23.2951 35.3025 23.2948H34.3922L34.3252 22.8937C34.2585 22.4907 33.941 22.1759 33.5375 22.1125C33.4479 22.0984 33.3574 22.089 33.2683 22.0767C33.4227 21.356 33.2944 20.6035 32.91 19.9746C33.1131 19.4478 33.0752 18.8585 32.8063 18.362C32.5374 17.8655 32.0645 17.5118 31.5123 17.3941C31.1593 15.5047 29.5155 14.1312 27.5934 14.1196C27.5463 14.1196 27.5043 14.1258 27.4595 14.1272C27.1524 13.6449 26.646 13.3247 26.0786 13.2542C25.5112 13.1836 24.9418 13.3699 24.5259 13.7623C24.0019 13.4217 23.3906 13.2401 22.7656 13.2395C21.7587 13.2436 20.8097 13.711 20.1926 14.5067C19.5074 14.3069 18.7686 14.4296 18.1847 14.8401C17.6009 15.2506 17.2354 15.9044 17.1916 16.6167C16.4719 16.9193 16.0036 17.6237 16.0031 18.4044C16.0046 18.5397 16.0204 18.6745 16.0503 18.8065C15.4138 19.766 15.2475 20.9626 15.5982 22.0593C15.4719 22.0767 15.3427 22.0923 15.2211 22.1102C14.8155 22.1714 14.4952 22.4863 14.4272 22.8908L14.3603 23.2934H13.4476C12.9964 23.2937 12.6086 23.6137 12.5227 24.0566L10.4583 34.6551C10.3777 35.0701 10.487 35.4995 10.7563 35.8255C11.0256 36.1514 11.4267 36.3398 11.8495 36.339H21.6804C22.0708 36.9829 23.2568 37.2818 24.375 37.2818C25.4815 37.2818 26.6562 36.99 27.0579 36.339H36.9006C37.3233 36.3398 37.7242 36.1515 37.9935 35.8256C38.2628 35.4997 38.3722 35.0705 38.2917 34.6555L36.2279 24.0599ZM17.4287 19.2576C17.0459 19.0275 16.8633 18.5706 16.9818 18.14C17.1004 17.7094 17.4912 17.4105 17.9378 17.4087C18.2504 17.4078 18.5446 17.5564 18.7293 17.8085C18.8297 17.9437 18.9946 18.0151 19.1619 17.9958C19.3293 17.9765 19.4736 17.8694 19.5405 17.7149C19.6074 17.5603 19.5868 17.3818 19.4864 17.2466C19.1663 16.8187 18.6812 16.545 18.1495 16.4923C18.2901 15.8321 18.8723 15.3594 19.5473 15.3576C19.6048 15.3605 19.6621 15.3668 19.7189 15.3764C19.6809 15.4731 19.6479 15.5716 19.6199 15.6716C19.5612 15.9211 19.7127 16.1718 19.9609 16.2359C20.2091 16.3 20.463 16.154 20.5325 15.9073C20.5861 15.7001 20.6685 15.5014 20.7772 15.317C21.1954 14.6165 21.9498 14.186 22.7656 14.1823C23.2096 14.1843 23.6435 14.3153 24.0144 14.5595C23.9438 14.758 23.9063 14.9668 23.9036 15.1775C23.9036 15.4379 24.1147 15.6489 24.375 15.6489C24.6354 15.6489 24.8465 15.4379 24.8465 15.1775C24.8465 14.6298 25.2904 14.1859 25.8381 14.1859C26.3857 14.1859 26.8297 14.6298 26.8297 15.1775C26.8297 15.4379 27.0408 15.6489 27.3011 15.6489C27.5615 15.6489 27.7725 15.4379 27.7725 15.1775C27.7725 15.1412 27.7636 15.1068 27.7617 15.0705C29.1115 15.1538 30.2466 16.1133 30.5534 17.4304C30.3335 17.4944 30.1269 17.5974 29.9434 17.7345C29.8087 17.8355 29.7381 18.0008 29.7582 18.168C29.7784 18.3352 29.8862 18.479 30.0411 18.5451C30.196 18.6113 30.3744 18.5898 30.5091 18.4887C30.8858 18.2098 31.4062 18.2321 31.7578 18.5421C32.1093 18.8522 32.1964 19.3657 31.9667 19.7743C31.8641 19.9547 31.7082 20.099 31.5203 20.1873C31.3233 20.2826 31.2179 20.5011 31.2658 20.7147C31.3136 20.9283 31.5023 21.0808 31.7211 21.0829C31.7903 21.0831 31.8585 21.0678 31.921 21.0382C32.046 20.9776 32.164 20.9038 32.2732 20.818C32.5169 21.5108 32.364 22.2813 31.8743 22.8286L31.863 22.8404C31.2489 23.5057 30.2692 23.6855 29.4588 23.2816C29.3794 23.2397 29.3032 23.1921 29.2306 23.1393C29.5779 22.6525 29.6258 22.013 29.3551 21.4799C29.2793 21.3294 29.129 21.2308 28.9608 21.2212C28.7926 21.2116 28.632 21.2924 28.5396 21.4333C28.4471 21.5742 28.4369 21.7537 28.5127 21.9042C28.6677 22.2157 28.571 22.5939 28.2854 22.7928C28.1178 22.9044 27.9106 22.9397 27.7154 22.8899C27.5202 22.8402 27.3553 22.7099 27.2615 22.5316C27.1862 22.381 27.0361 22.282 26.868 22.2719C26.6998 22.2618 26.5391 22.3423 26.4463 22.4829C26.3535 22.6235 26.3428 22.8029 26.4182 22.9535C26.6946 23.5116 27.2643 23.8641 27.8871 23.8624C28.0899 23.8611 28.2906 23.8216 28.4787 23.746C28.6471 23.8934 28.8326 24.02 29.0312 24.1231C29.7031 24.4714 30.4844 24.5436 31.2087 24.3244C30.7428 24.9605 30.0456 25.388 29.2674 25.5147C29.0253 25.5542 28.8539 25.7726 28.8732 26.0172C28.8925 26.2617 29.0961 26.4505 29.3414 26.4514C29.3665 26.4514 29.3916 26.4495 29.4164 26.4458C29.7034 26.3961 29.984 26.3142 30.2527 26.2016C30.3979 26.4584 30.5158 26.7297 30.6043 27.011C30.6206 27.0601 30.6288 27.1116 30.6289 27.1633C30.6287 27.367 30.5071 27.5511 30.3196 27.6309C30.1028 27.7148 29.8566 27.6486 29.711 27.4674C29.3459 27.0386 28.8679 26.7209 28.3312 26.5504C27.3124 26.2091 26.9193 25.9041 26.7524 25.5723C26.997 25.5417 27.2387 25.4913 27.4751 25.4214C27.6361 25.3719 27.7585 25.2402 27.7961 25.076C27.8337 24.9118 27.7809 24.74 27.6575 24.6254C27.5341 24.5107 27.3589 24.4705 27.1979 24.5201C26.9334 24.6012 26.6603 24.6514 26.3842 24.6695C25.8523 24.7111 25.3179 24.6304 24.8219 24.4338C24.6357 24.3612 24.4239 24.4139 24.2935 24.5653C23.6071 25.3537 22.4324 25.4877 21.5861 24.8742C20.7398 24.2606 20.5019 23.1024 21.0379 22.2049C21.1247 22.06 21.1276 21.8798 21.0455 21.7321C20.9634 21.5845 20.8088 21.4918 20.6399 21.4891C20.4709 21.4864 20.3134 21.574 20.2266 21.7189C20.1141 21.9103 20.0236 22.1138 19.9569 22.3256C19.5857 22.3061 19.293 22.0024 19.287 21.6307V21.6189C19.2868 21.4946 19.2368 21.3754 19.1483 21.288C19.0598 21.2007 18.94 21.1523 18.8156 21.1537C18.5541 21.1562 18.3437 21.3692 18.3442 21.6307C18.3463 22.4668 18.9768 23.1675 19.8079 23.2576C19.8096 23.4156 19.824 23.5733 19.8508 23.729C18.7983 23.9568 17.7066 23.5784 17.0206 22.7482C16.3347 21.9179 16.1692 20.7744 16.5915 19.7837C16.6969 19.8904 16.8147 19.9843 16.9422 20.0633C17.1649 20.1937 17.4511 20.1208 17.5843 19.8998C17.7175 19.6787 17.6481 19.3916 17.4287 19.2557V19.2576ZM15.3545 23.0445C15.5718 23.0125 15.7962 22.9842 16.0192 22.9549C16.8908 24.3478 18.5578 25.0241 20.1535 24.6322C20.5823 25.446 21.3657 26.0135 22.2726 26.1672C23.1794 26.3209 24.1061 26.0432 24.779 25.4162C25.0994 25.5118 25.4294 25.5715 25.7629 25.5944C25.9906 26.458 26.6487 26.9813 28.0314 27.4447C28.4041 27.5616 28.7366 27.7806 28.9912 28.0769C29.2741 28.4134 29.6904 28.609 30.1301 28.612C30.3224 28.6119 30.5127 28.5731 30.6897 28.4979C31.224 28.2695 31.5707 27.7444 31.5708 27.1633C31.5712 27.0117 31.547 26.8611 31.4991 26.7173C31.3931 26.3842 31.2535 26.0628 31.0824 25.758C31.884 25.1817 32.4424 24.3277 32.6489 23.3623C32.7493 23.243 32.8401 23.1159 32.9204 22.9823C33.0783 23.0026 33.2363 23.0205 33.3951 23.0469L35.097 33.2832C31.7704 32.1724 28.173 32.1724 24.8465 33.2832V27.382C24.8465 27.1217 24.6354 26.9106 24.375 26.9106C24.1147 26.9106 23.9036 27.1217 23.9036 27.382V33.2851C20.5774 32.1733 16.9801 32.172 13.6531 33.2813L15.3545 23.0445ZM11.4822 35.2226C11.3932 35.115 11.3569 34.9732 11.3833 34.8361L13.4476 24.2377H14.2019L12.7225 33.1281C12.6705 33.4517 12.7897 33.7792 13.0375 33.9937C13.2853 34.2082 13.6265 34.2792 13.9393 34.1813C16.4524 33.3671 19.1298 33.1972 21.7257 33.6872L21.5852 35.3961H11.8495C11.7073 35.3962 11.5725 35.3326 11.4822 35.2226ZM24.375 36.339C23.2394 36.339 22.5879 36.0033 22.4922 35.8539L22.6544 33.8975C23.1727 34.0265 23.68 34.1966 24.1714 34.4061C24.2349 34.4368 24.3045 34.4529 24.375 34.4533C24.4458 34.4532 24.5156 34.4371 24.5792 34.4061C25.0703 34.1954 25.5774 34.0242 26.0957 33.8942L26.2579 35.8534C26.1622 36.0033 25.5107 36.339 24.375 36.339V36.339ZM37.2678 35.2226C37.1776 35.3326 37.0428 35.3962 36.9006 35.3961H27.1663L27.0249 33.6839C29.6222 33.1949 32.3007 33.3662 34.8146 34.1822C35.1273 34.2788 35.4677 34.2069 35.7146 33.9919C35.9615 33.777 36.0797 33.4498 36.0271 33.1267L34.5492 24.2381H35.3034L37.3682 34.8356C37.3944 34.9731 37.3575 35.1152 37.2678 35.2226V35.2226Z" fill="#BC8A8A"/>
<path d="M22.8128 20.1623C22.6198 20.3369 22.6048 20.6348 22.7793 20.8279C23.1792 21.2694 23.7077 21.5742 24.2902 21.6991C24.0264 22.0708 23.5986 22.2914 23.1427 22.2907C22.8824 22.2907 22.6713 22.5018 22.6713 22.7621C22.6713 23.0225 22.8824 23.2336 23.1427 23.2336C24.1187 23.2374 24.9943 22.6347 25.3391 21.7217C26.5113 21.5275 27.4393 20.6252 27.6665 19.4589C27.7016 19.2921 27.6439 19.1193 27.5156 19.0071C27.3873 18.8948 27.2084 18.8606 27.0477 18.9175C26.887 18.9744 26.7696 19.1137 26.7406 19.2817C26.6482 19.7679 26.3676 20.198 25.9599 20.4786C25.1756 21.0068 24.1237 20.8869 23.4784 20.1957C23.3038 20.0028 23.0058 19.9878 22.8128 20.1623V20.1623Z" fill="#BC8A8A"/>
<path d="M21.1694 19.6508C21.4297 19.6508 21.6408 19.4397 21.6408 19.1794C21.6408 18.8543 21.7699 18.5425 21.9998 18.3127C22.2297 18.0828 22.5414 17.9537 22.8665 17.9537C23.1268 17.9537 23.3379 17.7426 23.3379 17.4823C23.3379 17.2219 23.1268 17.0108 22.8665 17.0108C21.6694 17.0121 20.6993 17.9823 20.698 19.1794C20.698 19.3044 20.7476 19.4243 20.836 19.5127C20.9244 19.6011 21.0444 19.6508 21.1694 19.6508V19.6508Z" fill="#BC8A8A"/>
<path d="M24.8464 10.411V9.9396C24.8464 9.67925 24.6354 9.46819 24.375 9.46819C24.1147 9.46819 23.9036 9.67925 23.9036 9.9396V10.411C23.9036 10.6714 24.1147 10.8824 24.375 10.8824C24.6354 10.8824 24.8464 10.6714 24.8464 10.411Z" fill="#BC8A8A"/>
<path d="M32.111 12.8511L31.6396 13.3225C31.517 13.4408 31.4679 13.6161 31.511 13.7809C31.5542 13.9457 31.6829 14.0745 31.8477 14.1176C32.0125 14.1608 32.1878 14.1116 32.3062 13.9891L32.7776 13.5176C32.9001 13.3993 32.9493 13.224 32.9061 13.0592C32.863 12.8944 32.7343 12.7656 32.5694 12.7225C32.4046 12.6794 32.2293 12.7285 32.111 12.8511Z" fill="#BC8A8A"/>
<path d="M16.7772 14.1272C16.9678 14.1271 17.1397 14.0123 17.2126 13.8362C17.2856 13.66 17.2453 13.4573 17.1105 13.3225L16.6391 12.8511C16.5207 12.7285 16.3454 12.6794 16.1806 12.7225C16.0158 12.7656 15.8871 12.8944 15.8439 13.0592C15.8008 13.224 15.8499 13.3993 15.9725 13.5176L16.4439 13.9891C16.5323 14.0775 16.6522 14.1272 16.7772 14.1272Z" fill="#BC8A8A"/>
<path d="M20.4061 12.1435C20.4681 12.1433 20.5294 12.1312 20.5867 12.1076C20.7022 12.0598 20.794 11.968 20.8419 11.8524C20.8897 11.7369 20.8897 11.607 20.8417 11.4915L20.3001 10.1847C20.238 10.0256 20.0947 9.91243 19.9255 9.889C19.7563 9.86557 19.5877 9.93551 19.4847 10.0718C19.3817 10.2081 19.3606 10.3895 19.4294 10.5458L19.9706 11.8526C20.0436 12.0287 20.2155 12.1435 20.4061 12.1435V12.1435Z" fill="#BC8A8A"/>
<path d="M29.0656 9.9297C28.8252 9.83023 28.5496 9.94438 28.4499 10.1847L27.9083 11.4915C27.8602 11.6071 27.8601 11.737 27.9079 11.8527C27.9558 11.9684 28.0476 12.0603 28.1633 12.1081C28.2206 12.1316 28.2819 12.1438 28.3439 12.1439C28.5345 12.144 28.7064 12.0292 28.7794 11.8531L29.3206 10.5463C29.3687 10.4307 29.3688 10.3008 29.321 10.1851C29.2731 10.0694 29.1813 9.97755 29.0656 9.9297V9.9297Z" fill="#BC8A8A"/>
<path d="M33.9566 17.7566C34.0186 17.7565 34.0799 17.7442 34.1371 17.7203L35.4434 17.1792C35.599 17.1147 35.7085 16.9722 35.7305 16.8052C35.7525 16.6382 35.6838 16.4722 35.5502 16.3696C35.4166 16.2671 35.2384 16.2436 35.0828 16.308L33.776 16.8492C33.5675 16.9348 33.4488 17.1561 33.4928 17.3772C33.5368 17.5983 33.7311 17.7573 33.9566 17.7566Z" fill="#BC8A8A"/>
<path d="M14.6129 17.7203C14.8535 17.82 15.1293 17.7059 15.229 17.4653C15.3287 17.2247 15.2146 16.9489 14.974 16.8491L13.6672 16.308C13.4267 16.2084 13.1509 16.3227 13.0513 16.5632C12.9517 16.8038 13.066 17.0796 13.3066 17.1791L14.6129 17.7203Z" fill="#BC8A8A"/>
</svg>
