<svg width="49" height="49" viewBox="0 0 49 49" fill="none" xmlns="http://www.w3.org/2000/svg">
<rect width="48.75" height="48.75" rx="24.375" fill="#FCDDDB"/>
<path d="M32.0661 18.428C32.0661 17.797 31.5527 17.2836 30.9216 17.2836H30.8448C30.7465 17.2836 30.6617 17.2164 30.6339 17.1165C30.5019 16.6434 30.3183 16.1833 30.088 15.7488C30.0406 15.6596 30.0543 15.5542 30.122 15.4866L30.1612 15.4474C30.6074 15.0012 30.6074 14.2751 30.1612 13.8289L29.2465 12.9143C28.7993 12.4671 28.0753 12.4669 27.628 12.9143L27.6195 12.9228C27.5502 12.992 27.4432 13.0048 27.3528 12.9543C26.9066 12.7052 26.4324 12.5062 25.9432 12.3626C25.8541 12.3365 25.7919 12.2517 25.7919 12.1537C25.7919 11.5226 25.2785 11.0093 24.6475 11.0093H23.354C22.7229 11.0093 22.2096 11.5227 22.2096 12.1564C22.2096 12.2517 22.1473 12.3365 22.0583 12.3626C21.5691 12.5062 21.0948 12.7053 20.6487 12.9543C20.5584 13.0047 20.4513 12.9921 20.3815 12.9223L20.3734 12.9143C19.9266 12.4674 19.2022 12.4669 18.755 12.9143L17.8404 13.8288C17.3931 14.2761 17.393 15 17.8404 15.4473L17.8795 15.4865C17.9471 15.5542 17.9608 15.6596 17.9136 15.7487C17.6832 16.1831 17.4996 16.6433 17.3677 17.1163C17.3398 17.2163 17.255 17.2835 17.1567 17.2835H17.0798C16.4487 17.2835 15.9354 17.7969 15.9354 18.4279V19.7213C15.9354 20.3524 16.4488 20.8658 17.0798 20.8658H17.2176C17.3128 20.8658 17.3969 20.9301 17.4268 21.026C17.5687 21.4802 17.759 21.9214 17.9926 22.3373C18.0375 22.4174 18.0213 22.521 17.953 22.5893L17.8404 22.7019C17.3931 23.1491 17.393 23.873 17.8404 24.3204L18.7549 25.2349C19.2021 25.6821 19.9261 25.6823 20.3734 25.2349L20.5166 25.0918C20.5833 25.025 20.6852 25.0078 20.7644 25.0501C21.1763 25.2698 21.612 25.4477 22.0592 25.5789C22.1478 25.6049 22.2096 25.6911 22.2096 25.7886V25.9956C22.2096 26.6266 22.723 27.14 23.354 27.14H24.6475C25.2785 27.14 25.7919 26.6266 25.7919 25.9956V25.7886C25.7919 25.6911 25.8537 25.6049 25.9423 25.5789C26.3895 25.4477 26.8252 25.2698 27.2371 25.0501C27.3162 25.0079 27.4182 25.025 27.4849 25.0918L27.628 25.2349C28.0752 25.6822 28.7992 25.6823 29.2466 25.2349L30.1612 24.3203C30.6074 23.8741 30.6074 23.148 30.1611 22.7018L30.0485 22.5893C29.9803 22.521 29.964 22.4173 30.0089 22.3373C30.2424 21.9215 30.4328 21.4803 30.5748 21.0258C30.6047 20.9301 30.6887 20.8657 30.7839 20.8657H30.9217C31.5527 20.8657 32.0661 20.3523 32.0661 19.7213V18.428H32.0661ZM31.1382 19.7214C31.1382 19.8409 31.041 19.938 30.9216 19.938H30.7838C30.2805 19.938 29.8404 20.2641 29.6889 20.7494C29.5662 21.1421 29.4017 21.5236 29.1997 21.8831C28.9521 22.3242 29.0312 22.8844 29.3923 23.2456L29.5049 23.3582C29.5893 23.4426 29.5893 23.58 29.5049 23.6645L28.5903 24.579C28.5058 24.6636 28.3687 24.6637 28.284 24.579L28.1409 24.4359C27.7879 24.0829 27.2366 23.9988 26.8003 24.2316C26.4442 24.4215 26.0676 24.5753 25.6809 24.6888C25.1998 24.8299 24.8638 25.2823 24.8638 25.7888V25.9958C24.8638 26.1152 24.7667 26.2123 24.6473 26.2123H23.3538C23.2344 26.2123 23.1372 26.1152 23.1372 25.9958V25.7888C23.1372 25.2823 22.8012 24.8299 22.3201 24.6888C21.9336 24.5754 21.557 24.4216 21.2008 24.2316C21.0358 24.1436 20.8544 24.1009 20.6735 24.1009C20.376 24.1009 20.0798 24.2164 19.8603 24.4359L19.7171 24.579C19.6326 24.6635 19.4956 24.6637 19.4109 24.579L18.4963 23.6645C18.4118 23.5799 18.4116 23.4429 18.4963 23.3582L18.6089 23.2455C18.97 22.8845 19.0491 22.3242 18.8014 21.8831C18.5995 21.5235 18.435 21.142 18.3123 20.7494C18.1607 20.264 17.7207 19.9379 17.2175 19.9379H17.0796C16.9602 19.9379 16.863 19.8408 16.863 19.7213V18.4279C16.863 18.3085 16.9602 18.2114 17.0796 18.2114H17.1565C17.6681 18.2114 18.1224 17.8636 18.2612 17.3657C18.3753 16.9567 18.5341 16.559 18.7332 16.1834C18.9726 15.7318 18.8931 15.1881 18.5355 14.8304L18.4963 14.7913C18.4118 14.7067 18.4117 14.5697 18.4963 14.485L19.4109 13.5704C19.4661 13.5152 19.5305 13.507 19.564 13.507C19.5975 13.507 19.6619 13.5152 19.7177 13.571L19.7257 13.579C20.0858 13.9391 20.6513 14.0155 21.1008 13.7646C21.4866 13.5492 21.8966 13.3771 22.3195 13.253C22.801 13.1117 23.1373 12.6608 23.1373 12.1537C23.1373 12.0343 23.2344 11.9371 23.3539 11.9371H24.6474C24.7668 11.9371 24.8639 12.0343 24.8639 12.1564C24.8639 12.6607 25.2003 13.1116 25.6819 13.253C26.1047 13.377 26.5147 13.5491 26.9005 13.7645C27.3499 14.0154 27.9154 13.9391 28.2756 13.579L28.2842 13.5704C28.3687 13.4859 28.5059 13.4857 28.5905 13.5704L29.5051 14.485C29.5895 14.5694 29.5895 14.7068 29.5051 14.7913L29.466 14.8304C29.1082 15.1881 29.0288 15.7318 29.2682 16.1834C29.4673 16.559 29.6261 16.9568 29.7401 17.3657C29.879 17.8636 30.3333 18.2114 30.8449 18.2114H30.9217C31.0412 18.2114 31.1383 18.3085 31.1383 18.4279V19.7214H31.1382Z" fill="#B88888"/>
<path d="M24.0006 14.1182C21.325 14.1182 19.1481 16.295 19.1481 18.9707C19.1481 21.6501 21.3318 23.8232 24.0006 23.8232C26.6697 23.8232 28.8531 21.6497 28.8531 18.9707C28.8531 16.295 26.6763 14.1182 24.0006 14.1182ZM24.0006 22.8953C22.9032 22.8953 21.9101 22.442 21.1972 21.7134C21.6258 21.0482 22.2754 20.5554 23.0328 20.3262C23.3222 20.4785 23.6514 20.5652 24.0006 20.5652C24.3499 20.5652 24.679 20.4786 24.9685 20.3262C25.7259 20.5554 26.3755 21.0482 26.8042 21.7134C26.0912 22.442 25.0981 22.8953 24.0006 22.8953ZM22.8428 18.4795C22.8428 17.8411 23.3622 17.3217 24.0006 17.3217C24.6391 17.3217 25.1584 17.841 25.1584 18.4795C25.1584 19.1178 24.639 19.6373 24.0006 19.6373C23.3622 19.6373 22.8428 19.1179 22.8428 18.4795ZM27.3937 20.9392C26.9607 20.3696 26.3922 19.9188 25.7408 19.6274C25.959 19.2979 26.0864 18.9034 26.0864 18.4795C26.0864 17.3294 25.1508 16.3937 24.0007 16.3937C22.8506 16.3937 21.915 17.3294 21.915 18.4795C21.915 18.9034 22.0424 19.2979 22.2605 19.6274C21.6091 19.9188 21.0406 20.3696 20.6076 20.9393C20.2702 20.3601 20.076 19.6879 20.076 18.9707C20.076 16.8067 21.8366 15.0461 24.0006 15.0461C26.1647 15.0461 27.9252 16.8067 27.9252 18.9707C27.9252 19.6879 27.731 20.3601 27.3937 20.9392Z" fill="#B88888"/>
<path d="M31.75 11.3564C29.6544 9.27597 26.8708 8.14156 23.9193 8.16333C21.4314 8.18134 19.0862 9.01756 17.1372 10.5816C16.9373 10.742 16.9053 11.034 17.0657 11.2339C17.2261 11.4336 17.518 11.4657 17.7179 11.3053C19.5024 9.87328 21.6491 9.1077 23.9261 9.09124C26.6322 9.07139 29.1775 10.11 31.0963 12.0149C33.0153 13.9201 34.0721 16.4585 34.0721 19.1624C34.0721 21.4757 33.3094 23.6508 31.8664 25.4525C31.7062 25.6525 31.7385 25.9445 31.9385 26.1047C32.0241 26.1733 32.1265 26.2065 32.2282 26.2065C32.3643 26.2065 32.4991 26.147 32.5906 26.0326C34.1444 24.0926 35 21.6528 35 19.1624C35 16.2094 33.8458 13.4371 31.75 11.3564Z" fill="#B88888"/>
<path d="M31.1115 27.0444C30.9049 26.893 30.6145 26.9375 30.463 27.1442C29.8286 28.0092 29.2939 28.9435 28.8684 29.9246H19.1394C18.5097 28.4675 17.6475 27.1365 16.5732 25.9641C14.8793 24.1157 13.9404 21.7165 13.9292 19.2082C13.9188 16.8655 14.7398 14.5757 16.241 12.7607C16.4043 12.5632 16.3766 12.2708 16.1792 12.1075C15.9817 11.9441 15.6893 11.9719 15.526 12.1693C13.8866 14.1515 12.99 16.6528 13.0014 19.2124C13.0135 21.9518 14.0391 24.5722 15.8891 26.591C16.8557 27.6458 17.638 28.8384 18.2203 30.1408C17.7422 30.4184 17.4198 30.9358 17.4198 31.5273C17.4198 31.9723 17.6022 32.3754 17.896 32.666C17.6022 32.9567 17.4198 33.3598 17.4198 33.8048C17.4198 34.2498 17.6022 34.6528 17.896 34.9435C17.6022 35.2342 17.4198 35.6373 17.4198 36.0823C17.4198 36.966 18.1388 37.685 19.0225 37.685H19.052V37.8147C19.052 38.9304 19.9596 39.838 21.0752 39.838H26.9261C28.0418 39.838 28.9494 38.9304 28.9494 37.8147V37.685H28.9789C29.8626 37.685 30.5815 36.966 30.5815 36.0823C30.5815 35.6373 30.3992 35.2342 30.1053 34.9435C30.3991 34.6528 30.5815 34.2498 30.5815 33.8048C30.5815 33.3598 30.3992 32.9567 30.1053 32.666C30.3991 32.3753 30.5815 31.9723 30.5815 31.5273C30.5815 30.9376 30.2612 30.4216 29.7856 30.1433C30.1724 29.2805 30.6503 28.4579 31.2113 27.693C31.3628 27.4863 31.318 27.1959 31.1115 27.0444ZM28.0215 37.8147C28.0215 38.4187 27.5301 38.9101 26.9261 38.9101H21.0751C20.4711 38.9101 19.9798 38.4187 19.9798 37.8147V37.6849H28.0214V37.8147H28.0215ZM21.9699 35.4074H28.9788C29.3509 35.4074 29.6536 35.7101 29.6536 36.0822C29.6536 36.4542 29.3509 36.7569 28.9788 36.7569H19.0224C18.6503 36.7569 18.3476 36.4542 18.3476 36.0822C18.3476 35.7101 18.6503 35.4074 19.0224 35.4074H19.801C20.0572 35.4074 20.2649 35.1997 20.2649 34.9435C20.2649 34.6873 20.0571 34.4795 19.801 34.4795H19.0224C18.6503 34.4795 18.3476 34.1768 18.3476 33.8048C18.3476 33.4327 18.6503 33.13 19.0224 33.13H28.9788C29.3509 33.13 29.6536 33.4327 29.6536 33.8048C29.6536 34.1768 29.3509 34.4795 28.9788 34.4795H21.9699C21.7137 34.4795 21.506 34.6873 21.506 34.9435C21.506 35.1997 21.7137 35.4074 21.9699 35.4074ZM28.9788 32.202H19.0224C18.6503 32.202 18.3476 31.8993 18.3476 31.5272C18.3476 31.1977 18.5853 30.923 18.8981 30.8644C18.9081 30.8631 18.9181 30.8618 18.928 30.8598C18.959 30.8555 18.9903 30.8524 19.0225 30.8524H28.9789C29.0125 30.8524 29.0454 30.8557 29.0778 30.8605C29.0881 30.8625 29.0985 30.8639 29.1088 30.8653C29.4189 30.926 29.6536 31.1996 29.6536 31.5272C29.6536 31.8993 29.3509 32.202 28.9788 32.202Z" fill="#B88888"/>
</svg>
