<svg width="49" height="49" viewBox="0 0 49 49" fill="none" xmlns="http://www.w3.org/2000/svg">
<rect x="0.25" width="48.75" height="48.75" rx="24.375" fill="#FCDDDB"/>
<path d="M31.0005 34.1099C30.7567 34.1131 30.5617 34.3134 30.5649 34.5571C30.5781 35.5529 30.1209 36.5179 29.342 37.1385C29.2369 37.2223 29.1757 37.3494 29.1757 37.4838V39.3831C29.1757 39.9356 30.0587 39.9607 30.0587 39.3831V37.6891C30.9477 36.8989 31.4636 35.7396 31.4478 34.5456C31.4445 34.3017 31.2436 34.1046 31.0005 34.1099Z" fill="#BC8A8A"/>
<path d="M29.4051 30.8656V29.8931C30.0243 29.9455 30.5188 30.4658 30.5271 31.0978L30.5426 32.1816C30.5508 32.7584 31.4337 32.746 31.4254 32.1691L31.41 31.0858C31.3949 29.9409 30.4513 29.0077 29.3065 29.0055L25.6745 28.9985V27.9783C27.1868 27.4183 28.2541 26.0133 28.3693 24.3842C28.6242 21.1724 25.1111 18.8953 22.2873 20.4367C21.8001 20.6972 22.1944 21.4876 22.7037 21.2153C23.2435 20.9267 23.8531 20.797 24.4674 20.8405C26.26 20.9673 27.6153 22.5291 27.4885 24.322C27.4059 25.4909 26.7003 26.5132 25.6745 27.0184V24.7402C25.6745 23.9232 25.0231 23.2368 24.2225 23.2101C23.3839 23.1805 22.6686 23.8738 22.6686 24.7123V26.9515C21.5673 26.3499 20.8951 25.1552 20.9865 23.8621C21.0158 23.4479 21.121 23.0499 21.2992 22.6795C21.5387 22.1816 20.7539 21.7762 20.5035 22.2967C19.4574 24.3871 20.5013 27.0944 22.6685 27.9272V32.394L21.4649 30.9344C20.9491 30.2997 19.9546 30.2374 19.3415 30.76C18.7108 31.2976 18.635 32.2482 19.1701 32.8759L22.7803 37.188V39.3835C22.7803 39.936 23.6632 39.9611 23.6632 39.3835V37.0276C23.6632 36.924 23.6268 36.8236 23.5603 36.7442L19.8446 32.3062C19.6228 32.046 19.6541 31.6537 19.9143 31.4319C20.1708 31.2133 20.5665 31.2438 20.7863 31.4993L22.7694 33.9042C23.0273 34.217 23.5515 34.0288 23.5515 33.6233V24.7123C23.5515 24.365 23.8466 24.0814 24.193 24.0925C24.523 24.1036 24.7914 24.394 24.7914 24.7401V30.8656C24.7914 31.4181 25.6744 31.4432 25.6744 30.8656V29.8814L26.6567 29.8833V30.8656C26.6567 31.4181 27.5397 31.4432 27.5397 30.8656V29.885L28.522 29.8869V30.8656C28.5221 31.4181 29.4051 31.4432 29.4051 30.8656Z" fill="#BC8A8A"/>
<path d="M36.9359 22.5266C36.2269 22.5266 35.6269 23.0011 35.4358 23.6492H30.7192C30.6303 22.3296 30.1417 21.1059 29.3669 20.1087L30.8182 18.6573H33.0859C33.2846 19.4713 34.0198 20.0772 34.894 20.0772C37.3632 19.975 37.3624 16.4563 34.894 16.3544C34.0198 16.3544 33.2846 16.9604 33.0859 17.7744H31.0768V15.2807C31.7247 15.0896 32.1992 14.4895 32.1992 13.7804C32.1132 11.7054 29.1569 11.7061 29.0713 13.7804C29.0713 14.4895 29.5458 15.0896 30.1937 15.2807V18.033L28.7784 19.4487C27.7155 18.4073 26.2929 17.7227 24.6958 17.6097C24.6903 17.6093 24.6846 17.6091 24.679 17.6087V13.3549C25.4929 13.1561 26.0987 12.4209 26.0987 11.5466C25.9964 9.07709 22.4781 9.07791 22.3763 11.5466C22.3763 12.4209 22.9822 13.1561 23.7961 13.3549V17.6082C22.2613 17.7111 20.7939 18.3715 19.6944 19.4464L18.2812 18.033V15.2807C18.9292 15.0896 19.4036 14.4895 19.4036 13.7804C19.3177 11.7054 16.3613 11.7061 16.2758 13.7804C16.2758 14.4895 16.7502 15.0896 17.3982 15.2807V17.7744H15.3939C15.1951 16.9604 14.4599 16.3544 13.5857 16.3544C11.1165 16.4567 11.1173 19.9754 13.5857 20.0772C14.4599 20.0772 15.1951 19.4713 15.3939 18.6573H17.6568L19.1052 20.106C18.3199 21.1154 17.8486 22.3362 17.757 23.6323C17.7565 23.6379 17.7564 23.6436 17.756 23.6492H13.0565C12.8655 23.0011 12.2655 22.5266 11.5565 22.5266C9.48167 22.6126 9.48232 25.5692 11.5565 25.6549C12.2655 25.6549 12.8655 25.1803 13.0565 24.5323H17.7551C17.8478 25.9373 18.3921 27.2675 19.3309 28.3493C19.6607 28.7293 20.0322 29.07 20.4353 29.3618C20.8902 29.6913 21.416 28.9818 20.9531 28.6467C20.6047 28.3944 20.2833 28.0997 19.9978 27.7707C16.8426 24.1903 19.4903 18.4816 24.2338 18.4764C27.4434 18.4764 30.0637 21.284 29.8373 24.4868C29.765 25.5073 29.4177 26.4862 28.8327 27.3176C28.5148 27.7695 29.2225 28.2983 29.5548 27.8258C30.2323 26.863 30.6346 25.7299 30.7181 24.5491C30.7185 24.5435 30.7187 24.5379 30.7191 24.5323H35.4359C35.9767 26.2416 38.4562 25.9031 38.5 24.0908C38.4999 23.2282 37.7983 22.5266 36.9359 22.5266ZM17.1588 13.7804C17.1588 13.4048 17.4642 13.0993 17.8397 13.0993C18.7431 13.1367 18.7429 14.4242 17.8397 14.4616C17.4643 14.4616 17.1588 14.156 17.1588 13.7804ZM13.5858 19.1943C13.0464 19.1943 12.6075 18.7553 12.6075 18.2158C12.6613 16.9178 14.5105 16.9181 14.564 18.2158C14.564 18.7553 14.1252 19.1943 13.5858 19.1943ZM11.5565 24.7718C11.181 24.7718 10.8756 24.4663 10.8756 24.0907C10.913 23.1871 12.2002 23.1874 12.2375 24.0907C12.2375 24.4663 11.932 24.7718 11.5565 24.7718ZM23.2593 11.5466C23.2593 11.007 23.6981 10.5681 24.2375 10.5681C25.5352 10.6219 25.5349 12.4714 24.2375 12.525C23.6981 12.525 23.2593 12.086 23.2593 11.5466ZM34.894 17.2374C35.4334 17.2374 35.8722 17.6764 35.8722 18.2158C35.8185 19.5139 33.9693 19.5136 33.9158 18.2158C33.9158 17.6763 34.3546 17.2374 34.894 17.2374ZM29.9543 13.7804C29.9543 13.4048 30.2597 13.0993 30.6352 13.0993C31.5386 13.1367 31.5384 14.4242 30.6352 14.4616C30.2598 14.4616 29.9543 14.156 29.9543 13.7804ZM36.9359 24.7718C36.5604 24.7718 36.255 24.4663 36.255 24.0907C36.2924 23.1871 37.5797 23.1874 37.617 24.0907C37.6169 24.4663 37.3114 24.7718 36.9359 24.7718Z" fill="#BC8A8A"/>
</svg>
