<svg width="49" height="49" viewBox="0 0 49 49" fill="none" xmlns="http://www.w3.org/2000/svg">
<rect x="0.250031" y="0.000453949" width="48.75" height="48.75" rx="24.375" fill="#FCDDDB"/>
<path d="M26.0958 18.5883C26.3363 18.3479 26.3363 17.958 26.0958 17.7175C25.8554 17.477 25.4654 17.477 25.2249 17.7175C25.1489 17.7936 25.06 17.8049 25.0138 17.8049C24.9676 17.8049 24.8787 17.7936 24.8026 17.7175C24.5622 17.477 24.1724 17.477 23.9318 17.7175C23.6913 17.958 23.6913 18.3479 23.9317 18.5883C24.2207 18.8774 24.605 19.0366 25.0137 19.0366C25.4224 19.0366 25.8068 18.8774 26.0958 18.5883Z" fill="#BC8A8A"/>
<path d="M24.567 36.0833H18.8756C18.7123 36.0833 18.5558 36.1482 18.4402 36.2637L15.977 38.7268C15.7365 38.9673 15.7365 39.3572 15.977 39.5977C16.0973 39.7179 16.2548 39.778 16.4124 39.778C16.57 39.778 16.7276 39.7179 16.8478 39.5977L19.1308 37.3148H24.567C24.907 37.3148 25.1827 37.0392 25.1827 36.6991C25.1827 36.359 24.907 36.0833 24.567 36.0833Z" fill="#BC8A8A"/>
<path d="M40.7395 27.3869C40.6772 26.7171 40.3308 26.1042 39.7893 25.7053C38.8164 24.9887 37.4669 25.1198 36.6502 26.0103L34.2364 28.6424V28.1756C34.2364 25.4161 32.272 23.0232 29.5655 22.4856L28.2802 22.2303C27.8523 22.1454 27.4814 21.9062 27.2282 21.5694C28.8209 20.9375 30.0841 19.6491 30.6825 18.0399C30.7843 18.1712 30.8944 18.2974 31.0138 18.4168C31.7705 19.1734 32.7825 19.5889 33.8404 19.5889C33.979 19.5889 34.1186 19.5817 34.2584 19.5672C34.4377 19.5487 34.5999 19.4525 34.7022 19.304C34.8045 19.1555 34.8365 18.9696 34.7898 18.7954L34.676 18.3709L35.1007 18.4846C35.2747 18.5313 35.4608 18.4993 35.6092 18.397C35.7578 18.2947 35.854 18.1325 35.8726 17.9531C35.9972 16.7469 35.5778 15.5644 34.722 14.7086C33.7469 13.7334 32.3447 13.3383 31.022 13.6313C30.683 10.6083 28.1118 8.25045 24.9998 8.25045C21.8878 8.25045 19.3166 10.6083 18.9776 13.6313C17.655 13.3383 16.2527 13.7334 15.2776 14.7086C14.4218 15.5645 14.0024 16.747 14.1271 17.9531C14.1457 18.1325 14.2419 18.2947 14.3904 18.397C14.5389 18.4992 14.7248 18.5312 14.899 18.4846L15.3236 18.3709L15.2098 18.7954C15.1631 18.9696 15.1951 19.1555 15.2974 19.304C15.3997 19.4525 15.5619 19.5488 15.7412 19.5672C15.8811 19.5817 16.0205 19.5889 16.1593 19.5889C17.2171 19.5888 18.2292 19.1733 18.9858 18.4168C19.1052 18.2974 19.2153 18.1712 19.3171 18.0399C19.9156 19.6491 21.1788 20.9375 22.7715 21.5694C22.5183 21.9062 22.1473 22.1454 21.7195 22.2303L20.4343 22.4856C17.7388 23.0209 15.7801 25.3965 15.764 28.1415C14.9593 28.5287 14.2171 29.0531 13.5671 29.7031L9.43035 33.8398C9.18988 34.0803 9.18988 34.4702 9.43035 34.7106C9.55061 34.8309 9.70818 34.891 9.86576 34.891C10.0233 34.891 10.1809 34.8309 10.3012 34.7106L14.4378 30.574C15.7198 29.2919 17.4244 28.5859 19.2375 28.5859C20.4575 28.5859 21.6044 29.061 22.4671 29.9237C22.5826 30.0391 22.7392 30.104 22.9025 30.104H26.9406C27.5383 30.104 28.0246 30.5902 28.0246 31.1879C28.0246 31.7856 27.5383 32.2718 26.9406 32.2718H22.2595C21.9195 32.2718 21.6438 32.5475 21.6438 32.8876C21.6438 33.2277 21.9195 33.5034 22.2595 33.5034H27.0656C29.8516 33.5034 32.5294 32.3257 34.4124 30.2725L37.5577 26.8428C37.9483 26.4169 38.5936 26.3543 39.0588 26.6969C39.3216 26.8905 39.483 27.176 39.5131 27.501C39.5434 27.826 39.4375 28.1364 39.2149 28.3751L35.2261 32.6532C33.7987 34.1841 31.9706 35.2602 29.9394 35.7652C29.6094 35.8472 29.4083 36.1812 29.4903 36.5113C29.5601 36.7915 29.8113 36.9787 30.0875 36.9787C30.1367 36.9787 30.1866 36.9727 30.2365 36.9603C32.4997 36.3977 34.5366 35.1988 36.1269 33.4931L40.1157 29.215C40.5745 28.7229 40.8018 28.0566 40.7395 27.3869ZM31.1684 14.8631C32.119 14.6075 33.1465 14.8745 33.8512 15.5794C34.2654 15.9935 34.5318 16.5184 34.6252 17.0822L33.9646 16.9052C33.7519 16.8481 33.5253 16.9091 33.3698 17.0645C33.2142 17.2201 33.1535 17.4468 33.2104 17.6594L33.3874 18.3199C32.8237 18.2265 32.2987 17.9601 31.8847 17.546C31.1799 16.8411 30.9127 15.8137 31.1684 14.8631ZM29.8101 13.9002C28.3246 13.7619 26.9181 13.1186 25.8416 12.0793C26.3106 11.421 26.6744 10.679 26.9069 9.87536C28.5041 10.5647 29.6569 12.092 29.8101 13.9002ZM24.9998 9.48201C25.2453 9.48201 25.4865 9.50072 25.7223 9.53626C25.0044 12.0117 22.7859 13.7828 20.1881 13.9195C20.3882 11.4394 22.4691 9.48201 24.9998 9.48201ZM18.1149 17.546C17.7008 17.9601 17.1761 18.2265 16.6122 18.3199L16.7892 17.6593C16.8461 17.4468 16.7854 17.2201 16.6298 17.0645C16.5128 16.9475 16.3555 16.8841 16.1943 16.8841C16.1413 16.8841 16.0877 16.891 16.035 16.9051L15.3745 17.0821C15.4678 16.5183 15.7343 15.9935 16.1484 15.5794C16.8533 14.8744 17.8809 14.6074 18.8313 14.863C19.087 15.8137 18.8198 16.8411 18.1149 17.546ZM20.1708 15.9334V15.1539C22.0534 15.076 23.7756 14.2834 25.0441 13.0199C26.3463 14.2515 28.0434 15.0024 29.8288 15.138V15.9334C29.8288 18.5961 27.6625 20.7624 24.9998 20.7624C22.3371 20.7624 20.1708 18.5961 20.1708 15.9334ZM24.9998 21.9939C25.3377 21.9939 25.6692 21.9656 25.9922 21.9122C26.1779 22.264 26.4307 22.5715 26.7336 22.8201C26.3112 23.3304 25.6836 23.633 24.9999 23.633C24.3162 23.633 23.6886 23.3304 23.2661 22.8201C23.569 22.5715 23.8219 22.264 24.0076 21.9122C24.3305 21.9657 24.6619 21.9939 24.9998 21.9939ZM26.9407 28.8725H23.1496C22.0784 27.8915 20.6993 27.3544 19.2376 27.3544C18.4784 27.3544 17.7354 27.4597 17.0248 27.6625C17.2461 25.7112 18.7121 24.0833 20.6742 23.6937L21.9595 23.4384C22.025 23.4254 22.0897 23.4101 22.1536 23.3929C22.8011 24.3118 23.8496 24.8646 24.9999 24.8646C26.1502 24.8646 27.1987 24.3118 27.8462 23.3929C27.9101 23.4101 27.9748 23.4254 28.0403 23.4384L29.3256 23.6937C31.4575 24.117 33.0049 26.002 33.0049 28.1756V29.942C31.9 30.9651 30.5493 31.6826 29.0965 32.0312C29.1991 31.7696 29.2562 31.4854 29.2562 31.1879C29.2562 29.9112 28.2175 28.8725 26.9407 28.8725Z" fill="#BC8A8A"/>
<path d="M27.3378 36.0833C27.1758 36.0833 27.017 36.1492 26.9024 36.2637C26.7879 36.3783 26.722 36.5371 26.722 36.6991C26.722 36.861 26.7878 37.0199 26.9024 37.1344C27.017 37.249 27.1758 37.3148 27.3378 37.3148C27.4997 37.3148 27.6586 37.249 27.7731 37.1344C27.8876 37.0199 27.9536 36.861 27.9536 36.6991C27.9536 36.5371 27.8877 36.3783 27.7731 36.2637C27.6586 36.1492 27.4997 36.0833 27.3378 36.0833Z" fill="#BC8A8A"/>
</svg>
