<svg width="49" height="49" viewBox="0 0 49 49" fill="none" xmlns="http://www.w3.org/2000/svg">
<rect x="0.25" y="0.000274658" width="48.75" height="48.75" rx="24.375" fill="#FCDDDB"/>
<path d="M29.4758 14.7344C28.7555 14.7344 28.1694 15.3206 28.1694 16.0409V19.5247C28.1694 20.245 28.7555 20.8312 29.4758 20.8312H36.4435C37.1638 20.8312 37.75 20.245 37.75 19.5247V16.0409C37.75 15.3206 37.1638 14.7344 36.4435 14.7344H34.6903C34.9668 14.3695 35.1371 13.9201 35.1371 13.428C35.1371 12.2273 34.1603 11.2505 32.9597 11.2505C31.9084 11.2505 31.0287 12 30.8262 12.9925H25.9919C24.7913 12.9925 23.8145 13.9693 23.8145 15.1699V19.1332C22.9627 19.307 22.2903 19.9794 22.1166 20.8312H17.2823C16.0816 20.8312 15.1048 21.808 15.1048 23.0086V26.972C14.1124 27.1745 13.3629 28.0541 13.3629 29.1054C13.3629 29.5975 13.5332 30.0469 13.8097 30.4118H12.0565C11.3362 30.4118 10.75 30.998 10.75 31.7183V35.2022C10.75 35.9225 11.3362 36.5086 12.0565 36.5086H19.0242C19.7445 36.5086 20.3306 35.9225 20.3306 35.2022V31.7183C20.3306 30.998 19.7445 30.4118 19.0242 30.4118H17.2709C17.5475 30.0469 17.7177 29.5975 17.7177 29.1054C17.7177 28.0541 16.9683 27.1745 15.9758 26.972V23.0086C15.9758 22.2883 16.562 21.7022 17.2823 21.7022H22.1166C22.1828 22.0257 22.3265 22.3188 22.519 22.5731H20.7661C20.0458 22.5731 19.4597 23.1593 19.4597 23.8796V27.3635C19.4597 28.0837 20.0458 28.6699 20.7661 28.6699H24.1977C24.1703 28.747 24.1411 28.8232 24.1167 28.9016L22.9435 29.2034V32.4917L24.1167 32.7931C24.2339 33.1693 24.3841 33.5325 24.5653 33.8783L23.9491 34.9195L26.2746 37.245L27.3158 36.6292C27.662 36.8104 28.0256 36.9611 28.4015 37.0778L28.7024 38.2505H31.9912L32.2921 37.0778C32.6679 36.9606 33.0311 36.8104 33.3777 36.6292L34.419 37.245L36.7445 34.9195L36.1283 33.8783C36.3094 33.5325 36.4597 33.1693 36.5768 32.7931L37.75 32.4913V29.2029L36.5768 28.9016C36.4597 28.5253 36.3094 28.1621 36.1283 27.8164L36.7445 26.7751L34.419 24.4496L33.3777 25.0658C33.032 24.8842 32.6683 24.7344 32.2921 24.6173L31.9912 23.4441H28.9602C28.7799 22.9385 28.3009 22.5731 27.7339 22.5731H25.9806C26.2571 22.2082 26.4274 21.7588 26.4274 21.2667C26.4274 20.2154 25.678 19.3357 24.6855 19.1332V15.1699C24.6855 14.4496 25.2716 13.8635 25.9919 13.8635H30.8262C30.8924 14.187 31.0361 14.4801 31.2286 14.7344H29.4758ZM19.4597 31.7183V35.2022C19.4597 35.4425 19.2641 35.6376 19.0242 35.6376H12.0565C11.8165 35.6376 11.621 35.4425 11.621 35.2022V31.7183C11.621 31.4779 11.8165 31.2828 12.0565 31.2828H19.0242C19.2641 31.2828 19.4597 31.4779 19.4597 31.7183ZM16.8468 29.1054C16.8468 29.8257 16.2606 30.4118 15.5403 30.4118C14.82 30.4118 14.2339 29.8257 14.2339 29.1054C14.2339 28.3851 14.82 27.7989 15.5403 27.7989C16.2606 27.7989 16.8468 28.3851 16.8468 29.1054ZM31.5735 25.321L31.8187 25.3868C32.2934 25.5144 32.7476 25.7021 33.1678 25.9442L33.3882 26.0714L34.2805 25.5431L35.6505 26.9132L35.1227 27.8063L35.2499 28.0267C35.492 28.4461 35.6797 28.8998 35.8073 29.3754L35.8735 29.6206L36.879 29.8784V31.8158L35.8735 32.0741L35.8073 32.3193C35.6797 32.7948 35.4916 33.2486 35.2499 33.668L35.1227 33.8883L35.6505 34.7815L34.2805 36.1511L33.3882 35.6233L33.1678 35.7504C32.7472 35.993 32.2934 36.1807 31.8191 36.3079L31.5735 36.3736L31.3153 37.3796H29.3783L29.12 36.3736L28.8744 36.3079C28.4002 36.1807 27.9464 35.9926 27.5257 35.7504L27.3054 35.6233L26.413 36.1511L25.043 34.7815L25.5708 33.8883L25.4437 33.668C25.2015 33.2486 25.0138 32.7948 24.8862 32.3193L24.82 32.0741L23.8145 31.8163V29.8788L24.82 29.6206L24.8862 29.3754C24.9511 29.1337 25.0369 28.8994 25.1323 28.6703H26.0799C25.7367 29.3392 25.5565 30.0791 25.5565 30.8473C25.5565 33.4885 27.7056 35.6376 30.3468 35.6376C32.988 35.6376 35.1371 33.4885 35.1371 30.8473C35.1371 28.2061 32.988 26.057 30.3468 26.057C29.8995 26.057 29.4632 26.1228 29.0403 26.2425V24.3151H31.3153L31.5735 25.321ZM29.0403 27.3635V27.1553C29.4584 27.0072 29.896 26.928 30.3468 26.928C32.5076 26.928 34.2661 28.686 34.2661 30.8473C34.2661 33.0086 32.5076 34.7667 30.3468 34.7667C28.1859 34.7667 26.4274 33.0086 26.4274 30.8473C26.4274 30.0621 26.6578 29.3149 27.0907 28.6699H27.7339C28.4542 28.6699 29.0403 28.0837 29.0403 27.3635ZM28.1694 23.8796V27.3635C28.1694 27.6038 27.9738 27.7989 27.7339 27.7989H20.7661C20.5262 27.7989 20.3306 27.6038 20.3306 27.3635V23.8796C20.3306 23.6396 20.5262 23.4441 20.7661 23.4441H27.7339C27.9738 23.4441 28.1694 23.6396 28.1694 23.8796ZM25.5565 21.2667C25.5565 21.987 24.9703 22.5731 24.25 22.5731C23.5297 22.5731 22.9435 21.987 22.9435 21.2667C22.9435 20.5464 23.5297 19.9602 24.25 19.9602C24.9703 19.9602 25.5565 20.5464 25.5565 21.2667ZM36.879 16.0409V19.5247C36.879 19.7647 36.6835 19.9602 36.4435 19.9602H29.4758C29.2359 19.9602 29.0403 19.7647 29.0403 19.5247V16.0409C29.0403 15.8009 29.2359 15.6054 29.4758 15.6054H36.4435C36.6835 15.6054 36.879 15.8009 36.879 16.0409ZM31.6532 13.428C31.6532 12.7077 32.2394 12.1215 32.9597 12.1215C33.68 12.1215 34.2661 12.7077 34.2661 13.428C34.2661 14.1483 33.68 14.7344 32.9597 14.7344C32.2394 14.7344 31.6532 14.1483 31.6532 13.428Z" fill="#B88888"/>
<path d="M29.9113 16.4765H36.0081V17.3475H29.9113V16.4765Z" fill="#B88888"/>
<path d="M29.9113 18.2178H36.0081V19.0887H29.9113V18.2178Z" fill="#B88888"/>
<path d="M21.2016 24.3151H27.2984V25.1861H21.2016V24.3151Z" fill="#B88888"/>
<path d="M21.2016 26.0573H27.2984V26.9283H21.2016V26.0573Z" fill="#B88888"/>
<path d="M12.4919 32.1537H18.5887V33.0247H12.4919V32.1537Z" fill="#B88888"/>
<path d="M12.4919 33.8959H18.5887V34.7669H12.4919V33.8959Z" fill="#B88888"/>
<path d="M30.3468 33.025C31.5474 33.025 32.5242 32.0482 32.5242 30.8476C32.5242 29.647 31.5474 28.6702 30.3468 28.6702C29.1461 28.6702 28.1693 29.647 28.1693 30.8476C28.1693 32.0482 29.1461 33.025 30.3468 33.025ZM30.3468 29.5412C31.0671 29.5412 31.6532 30.1273 31.6532 30.8476C31.6532 31.5679 31.0671 32.1541 30.3468 32.1541C29.6265 32.1541 29.0403 31.5679 29.0403 30.8476C29.0403 30.1273 29.6265 29.5412 30.3468 29.5412Z" fill="#B88888"/>
</svg>
