<svg width="49" height="49" viewBox="0 0 49 49" fill="none" xmlns="http://www.w3.org/2000/svg">
<rect y="-0.000259399" width="48.75" height="48.75" rx="24.375" fill="#FCDDDB"/>
<path d="M21.3378 21.4494C22.4744 21.239 23.338 20.2403 23.338 19.0437C23.338 17.6945 22.2403 16.5971 20.8911 16.5971H20.7372C19.473 16.5971 18.4445 17.6255 18.4445 18.89C18.4445 19.2215 18.7134 19.4906 19.0451 19.4906C19.3768 19.4906 19.6457 19.2215 19.6457 18.89C19.6457 18.288 20.1353 17.7982 20.7372 17.7982H20.8911C21.578 17.7982 22.1368 18.357 22.1368 19.0437C22.1368 19.7305 21.578 20.2891 20.8911 20.2891C20.4752 20.2891 20.1367 20.6276 20.1367 21.0436V22.2172C20.1367 22.549 20.4058 22.8178 20.7372 22.8178C21.069 22.8178 21.3378 22.549 21.3378 22.2172V21.4494Z" fill="#BC8A8A"/>
<path d="M20.7368 23.9838C20.5789 23.9838 20.424 24.048 20.3121 24.1597C20.2005 24.2716 20.1362 24.4264 20.1362 24.5843C20.1362 24.7424 20.2005 24.8973 20.3121 25.0089C20.4245 25.1206 20.5789 25.1849 20.7368 25.1849C20.8953 25.1849 21.0497 25.1206 21.1614 25.0089C21.2738 24.8973 21.3373 24.7424 21.3373 24.5843C21.3373 24.4264 21.2738 24.2716 21.1614 24.1597C21.0497 24.048 20.8953 23.9838 20.7368 23.9838Z" fill="#BC8A8A"/>
<path d="M15.6709 26.0326C15.4382 25.7964 15.0579 25.7935 14.8217 26.0265C14.5855 26.2592 14.5827 26.6395 14.8156 26.8757L14.8609 26.9215C14.9782 27.0388 15.1318 27.0974 15.2855 27.0974C15.4392 27.0974 15.5931 27.0388 15.7101 26.9215C15.9447 26.6869 15.9447 26.3066 15.7101 26.0722L15.6709 26.0326Z" fill="#BC8A8A"/>
<path d="M26.9214 14.8603C23.5962 11.5354 18.186 11.5354 14.8609 14.8603C12.2834 17.4378 11.6277 21.3682 13.2293 24.6401C13.3749 24.938 13.7348 25.0614 14.0327 24.9155C14.3307 24.7698 14.4538 24.41 14.3082 24.112C12.932 21.3009 13.4958 17.9244 15.7103 15.7098C18.567 12.8531 23.2153 12.8529 26.0722 15.7098C28.9288 18.5664 28.9288 23.2147 26.0722 26.0716C23.9047 28.239 20.5815 28.8281 17.8029 27.5371C17.5022 27.3975 17.1449 27.528 17.0051 27.8289C16.8655 28.1297 16.9961 28.4867 17.2969 28.6266C18.4398 29.1575 19.6614 29.415 20.8752 29.415C23.0963 29.415 25.2902 28.552 26.9214 26.9208C30.2465 23.5957 30.2465 18.1855 26.9214 14.8603Z" fill="#BC8A8A"/>
<path d="M39.2212 35.373L30.9977 27.1495C32.1282 25.3305 32.7825 23.1858 32.7825 20.891C32.7825 14.3341 27.448 8.99987 20.8911 8.99987C14.3344 8.99987 8.99997 14.3343 8.99997 20.891C8.99997 27.4479 14.3344 32.7822 20.8911 32.7822C23.1859 32.7822 25.3304 32.1281 27.1492 30.9978L35.3727 39.2213C35.7241 39.5725 36.1853 39.7482 36.6467 39.7482C37.1082 39.7482 37.5694 39.5725 37.9208 39.2213L39.2209 37.921C39.5613 37.5808 39.7486 37.1283 39.7486 36.6471C39.7488 36.1657 39.5613 35.7134 39.2212 35.373ZM10.2011 20.891C10.2011 14.9966 14.9967 10.201 20.8911 10.201C26.7858 10.201 31.5814 14.9966 31.5814 20.891C31.5814 26.7854 26.7858 31.581 20.8911 31.581C14.9967 31.581 10.2011 26.7857 10.2011 20.891ZM30.3014 28.152L31.6306 29.4812L29.481 31.631L28.1516 30.3016C28.9562 29.6794 29.679 28.9566 30.3014 28.152ZM38.3717 37.0717L37.0714 38.3721C36.8372 38.6062 36.4562 38.6062 36.2221 38.3721L30.3303 32.4802L32.4799 30.3306L38.3717 36.2225C38.485 36.3358 38.5477 36.4866 38.5477 36.6471C38.5477 36.8076 38.4853 36.9582 38.3717 37.0717Z" fill="#BC8A8A"/>
</svg>
