<svg width="114" height="36" viewBox="0 0 114 36" fill="none" xmlns="http://www.w3.org/2000/svg">
<rect y="0.000427246" width="36" height="36" rx="18" fill="#F3525F"/>
<path d="M20.5009 23.0488H15.0315L13.9096 26.1808H9.9361L15.8964 9.81934H20.1036L26.0638 26.1808H21.6229L20.5009 23.0488ZM16.2236 19.8232H19.3089L17.7662 14.9615L16.2236 19.8232Z" fill="white"/>
<path d="M55.8173 24.3808H52.6723L48.8016 18.7821V24.3808H46.0368V12.2848H48.8016V17.5379L52.4995 12.2848H55.6445L51.5664 18.1773L55.8173 24.3808ZM58.3184 24.3808V21.7888C58.9866 21.8925 59.4877 21.7888 59.8218 21.4778C60.1559 21.1667 60.3229 20.5331 60.3229 19.577V12.2848H68.6864V24.3808H65.9216V14.9459H63.0877V19.4733C63.0877 20.4986 62.9437 21.3683 62.6557 22.0826C62.3792 22.7968 61.9991 23.321 61.5152 23.655C61.0429 23.9776 60.5418 24.1965 60.0119 24.3117C59.4935 24.4269 58.929 24.4499 58.3184 24.3808ZM80.6083 24.3808L80.0035 22.48H75.5107L74.9059 24.3808H71.8819L75.9945 12.2848H79.5196L83.6323 24.3808H80.6083ZM76.3401 19.888H79.174L77.7571 15.447L76.3401 19.888ZM92.1565 24.6227C90.3478 24.6227 88.8445 24.0237 87.6464 22.8256C86.4598 21.616 85.8665 20.1184 85.8665 18.3328C85.8665 16.5472 86.4598 15.0554 87.6464 13.8573C88.8445 12.6477 90.3478 12.0429 92.1565 12.0429C93.2393 12.0429 94.2416 12.2963 95.1632 12.8032C96.0848 13.2986 96.8105 13.9782 97.3405 14.8422L94.9558 16.2246C94.6909 15.7523 94.3107 15.3894 93.8153 15.136C93.32 14.871 92.767 14.7386 92.1565 14.7386C91.0851 14.7386 90.2269 15.0669 89.5817 15.7235C88.9481 16.3802 88.6313 17.2499 88.6313 18.3328C88.6313 19.4157 88.9481 20.2854 89.5817 20.9421C90.2269 21.5987 91.0851 21.927 92.1565 21.927C92.767 21.927 93.32 21.7946 93.8153 21.5296C94.3222 21.2646 94.7024 20.9018 94.9558 20.441L97.3405 21.8234C96.8221 22.6874 96.1021 23.3728 95.1805 23.8797C94.2589 24.375 93.2509 24.6227 92.1565 24.6227ZM106.399 24.6227C104.59 24.6227 103.087 24.0237 101.889 22.8256C100.702 21.616 100.109 20.1184 100.109 18.3328C100.109 16.5472 100.702 15.0554 101.889 13.8573C103.087 12.6477 104.59 12.0429 106.399 12.0429C107.482 12.0429 108.484 12.2963 109.406 12.8032C110.327 13.2986 111.053 13.9782 111.583 14.8422L109.198 16.2246C108.933 15.7523 108.553 15.3894 108.058 15.136C107.562 14.871 107.01 14.7386 106.399 14.7386C105.328 14.7386 104.469 15.0669 103.824 15.7235C103.191 16.3802 102.874 17.2499 102.874 18.3328C102.874 19.4157 103.191 20.2854 103.824 20.9421C104.469 21.5987 105.328 21.927 106.399 21.927C107.01 21.927 107.562 21.7946 108.058 21.5296C108.565 21.2646 108.945 20.9018 109.198 20.441L111.583 21.8234C111.065 22.6874 110.345 23.3728 109.423 23.8797C108.501 24.375 107.493 24.6227 106.399 24.6227Z" fill="#202940"/>
</svg>
