<svg width="114" height="37" viewBox="0 0 114 37" fill="none" xmlns="http://www.w3.org/2000/svg">
<rect x="0.000488281" y="0.125488" width="36" height="36" rx="18" fill="#5F7CE6"/>
<path d="M20.3148 23.1044H14.8454L13.7235 26.2365H9.75L15.7103 9.875H19.9175L25.8778 26.2365H21.4368L20.3148 23.1044ZM16.0375 19.8789H19.1228L17.5801 15.0172L16.0375 19.8789Z" fill="white"/>
<path d="M55.8168 24.5049H52.6718L48.8011 18.9062V24.5049H46.0363V12.4089H48.8011V17.662L52.499 12.4089H55.644L51.5659 18.3014L55.8168 24.5049ZM58.3179 24.5049V21.9129C58.9861 22.0166 59.4872 21.9129 59.8213 21.6018C60.1554 21.2908 60.3224 20.6572 60.3224 19.701V12.4089H68.6859V24.5049H65.9211V15.07H63.0872V19.5974C63.0872 20.6226 62.9432 21.4924 62.6552 22.2066C62.3787 22.9209 61.9986 23.445 61.5147 23.7791C61.0424 24.1017 60.5413 24.3206 60.0114 24.4358C59.493 24.551 58.9285 24.574 58.3179 24.5049ZM80.6078 24.5049L80.003 22.6041H75.5102L74.9054 24.5049H71.8814L75.994 12.4089H79.5192L83.6318 24.5049H80.6078ZM76.3396 20.0121H79.1736L77.7566 15.5711L76.3396 20.0121ZM92.156 24.7468C90.3473 24.7468 88.844 24.1478 87.6459 22.9497C86.4593 21.7401 85.866 20.2425 85.866 18.4569C85.866 16.6713 86.4593 15.1794 87.6459 13.9814C88.844 12.7718 90.3473 12.167 92.156 12.167C93.2388 12.167 94.2411 12.4204 95.1627 12.9273C96.0843 13.4226 96.81 14.1023 97.34 14.9663L94.9553 16.3487C94.6904 15.8764 94.3102 15.5135 93.8148 15.2601C93.3195 14.9951 92.7665 14.8626 92.156 14.8626C91.0846 14.8626 90.2264 15.191 89.5812 15.8476C88.9476 16.5042 88.6308 17.374 88.6308 18.4569C88.6308 19.5398 88.9476 20.4095 89.5812 21.0662C90.2264 21.7228 91.0846 22.0511 92.156 22.0511C92.7665 22.0511 93.3195 21.9186 93.8148 21.6537C94.3217 21.3887 94.7019 21.0258 94.9553 20.565L97.34 21.9474C96.8216 22.8114 96.1016 23.4969 95.18 24.0038C94.2584 24.4991 93.2504 24.7468 92.156 24.7468ZM106.398 24.7468C104.59 24.7468 103.086 24.1478 101.888 22.9497C100.702 21.7401 100.109 20.2425 100.109 18.4569C100.109 16.6713 100.702 15.1794 101.888 13.9814C103.086 12.7718 104.59 12.167 106.398 12.167C107.481 12.167 108.484 12.4204 109.405 12.9273C110.327 13.4226 111.053 14.1023 111.582 14.9663L109.198 16.3487C108.933 15.8764 108.553 15.5135 108.057 15.2601C107.562 14.9951 107.009 14.8626 106.398 14.8626C105.327 14.8626 104.469 15.191 103.824 15.8476C103.19 16.5042 102.873 17.374 102.873 18.4569C102.873 19.5398 103.19 20.4095 103.824 21.0662C104.469 21.7228 105.327 22.0511 106.398 22.0511C107.009 22.0511 107.562 21.9186 108.057 21.6537C108.564 21.3887 108.944 21.0258 109.198 20.565L111.582 21.9474C111.064 22.8114 110.344 23.4969 109.422 24.0038C108.501 24.4991 107.493 24.7468 106.398 24.7468Z" fill="#202940"/>
</svg>
