<svg width="663" height="4349" viewBox="0 0 663 4349" fill="none" xmlns="http://www.w3.org/2000/svg">
<g opacity="0.5">
<path d="M450.369 3621.17L463.752 3572.58L430.994 3563.56C415.161 3559.2 409.322 3550.54 413.382 3535.8L476.09 3308.13C480.15 3293.39 489.598 3288.94 505.431 3293.31L538.189 3302.33L551.573 3253.74L331.002 3192.98C223.446 3163.36 166.172 3185.77 149.48 3246.37C138.653 3285.68 154.238 3329.32 208.351 3358.91C161.555 3362.47 135.117 3388.08 121.884 3436.13L113.463 3466.7C110.004 3479.26 103.943 3479.94 98.4833 3478.44C94.6615 3477.38 90.8004 3472.21 93.0561 3464.02L107.943 3409.97L63.7201 3397.79L46.7274 3459.48C38.3063 3490.06 58.988 3521.6 102.12 3533.48C156.716 3548.52 195.522 3522.79 206.349 3483.48L213.868 3456.18C224.395 3417.96 240.459 3389.49 276.493 3399.42L346.923 3418.81L321.66 3510.54C317.599 3525.28 308.151 3529.72 292.318 3525.36L259.56 3516.34L246.177 3564.93L450.369 3621.17ZM360.156 3370.77L294.094 3352.57C249.871 3340.39 231.713 3312.48 241.938 3275.36C250.811 3243.15 278.854 3230.9 330.721 3245.18L390.232 3261.58L360.156 3370.77Z" fill="white"/>
<path d="M421.69 2070.08C446.019 2088.44 462.062 2117.77 441.889 2144.51C420.635 2172.68 385.549 2153.71 349.032 2133.65C292.226 2102.78 245.039 2091.91 212.258 2135.36C181.998 2175.47 199.307 2220 243.67 2253.47C277.062 2278.66 314.563 2290.47 350.458 2281.58C343.204 2306.08 349.57 2333.36 376.284 2353.51C407.768 2377.27 441.238 2378.54 465.013 2347.02L492.751 2310.26L461.744 2286.87L434.007 2323.63C429.684 2329.36 423.94 2331.02 419.17 2327.42C415.353 2324.55 415.733 2318.09 419.696 2312.84L505.431 2199.19C541.454 2151.44 511.412 2089.07 454.646 2046.24C402.65 2007.02 335.865 1993.35 307.407 2031.07C294.438 2048.26 296.384 2074.45 317.851 2090.65C339.317 2106.84 361.339 2099.48 372.506 2084.68C380.791 2073.69 379.516 2061.49 372.03 2047.6C388.045 2049.2 406.903 2058.93 421.69 2070.08ZM383.171 2222.34C362.278 2250.04 328.534 2259.05 297.051 2235.3C279.401 2221.98 275.994 2203.68 287.521 2188.4C304.812 2165.48 329.307 2169.72 353.071 2177.91C373.252 2184.89 393.307 2194.03 406.226 2191.78L383.171 2222.34Z" fill="white"/>
<path d="M384.693 3860.12C421.421 3887.83 445.64 3932.11 415.186 3972.48C383.101 4015.01 330.133 3986.36 275.004 3956.08C189.248 3909.49 118.011 3893.07 68.5229 3958.67C22.8418 4019.22 48.9711 4086.44 115.945 4136.97C166.355 4175 222.968 4192.82 277.157 4179.41C266.206 4216.39 275.817 4257.58 316.145 4288C363.675 4323.86 414.204 4325.78 450.096 4278.2L491.971 4222.7L445.161 4187.38L403.287 4242.89C396.761 4251.54 388.089 4254.05 380.888 4248.62C375.127 4244.27 375.7 4234.52 381.682 4226.59L511.112 4055.03C565.494 3982.94 520.142 3888.78 434.445 3824.13C355.949 3764.91 255.127 3744.27 212.165 3801.22C192.587 3827.17 195.525 3866.72 227.932 3891.16C260.338 3915.61 293.584 3904.5 310.442 3882.15C322.95 3865.57 321.025 3847.15 309.724 3826.18C333.901 3828.59 362.369 3843.28 384.693 3860.12ZM326.543 4089.98C295.001 4131.79 244.06 4145.39 196.531 4109.53C169.885 4089.43 164.742 4061.8 182.144 4038.73C208.248 4004.13 245.226 4010.54 281.102 4022.9C311.569 4033.44 341.844 4047.23 361.348 4043.85L326.543 4089.98Z" fill="white"/>
<path d="M390.045 563.321C406.489 572.459 418.808 589.02 408.764 607.094C398.183 626.136 375.109 617.539 351.067 608.404C313.697 594.396 283.919 591.789 267.598 621.159C252.533 648.271 266.926 674.01 296.913 690.672C319.483 703.214 343.419 707.222 364.603 698.718C362.266 714.315 368.493 730.448 386.549 740.482C407.83 752.307 428.401 750.22 440.238 728.919L454.047 704.067L433.089 692.421L419.279 717.273C417.127 721.146 413.758 722.653 410.534 720.861C407.954 719.428 407.634 715.448 409.606 711.898L452.291 635.082C470.226 602.807 446.52 567.247 408.151 545.926C373.005 526.396 331.007 523.757 316.838 549.254C310.382 560.873 313.814 576.72 328.324 584.783C342.833 592.845 355.666 586.459 361.225 576.454C365.35 569.03 363.527 561.681 357.761 553.83C367.688 553.433 380.049 557.767 390.045 563.321ZM379.531 659.703C369.129 678.422 349.271 686.819 327.991 674.994C316.06 668.364 312.411 657.466 318.15 647.138C326.759 631.646 342.096 632.142 357.325 635.113C370.261 637.655 383.303 641.523 391.009 639.047L379.531 659.703Z" fill="white"/>
<path d="M456.483 98.7076C480.773 107.965 516.378 115.514 536.772 113.097C552.348 111.159 560.289 104.922 575.166 80.4848C529.249 76.8797 502.376 67.1005 477.276 57.5341C441.246 43.8016 428.869 34.9155 384.645 7.40628L320.477 153.868L347.119 169.117C369.325 159.516 389.661 158.467 413.141 167.416C445.123 179.605 462.246 212.533 448.681 248.124C432.957 289.377 399.784 302.209 366.183 289.403C338.655 278.911 331.136 271.876 323.79 260.739C332.966 260.994 349.042 260.173 357.366 238.333C363.378 222.56 352.522 203.6 332.686 196.04C324.994 193.108 295.075 184.021 282.435 217.185C266.558 258.842 310.843 304.439 363.471 324.498C431.078 350.266 496.517 323.33 515.94 272.37C527.193 242.846 529.207 175.524 436.905 140.344C413.02 131.24 386.862 130.534 366.044 136.496L397.627 67.0113C413.841 79.2124 437.456 91.4556 456.483 98.7076Z" fill="white"/>
</g>
</svg>
