<svg width="763" height="4452" viewBox="0 0 763 4452" fill="none" xmlns="http://www.w3.org/2000/svg">
<g opacity="0.5">
<path d="M575.827 1812.21L541.24 1775.55L516.525 1798.87C504.58 1810.14 494.15 1810.64 483.657 1799.51L321.599 1627.75C311.107 1616.63 312.21 1606.25 324.155 1594.98L348.869 1571.66L314.281 1535L147.873 1692.01C66.7281 1768.57 56.1534 1829.15 99.2911 1874.87C127.272 1904.53 172.67 1913.86 226.047 1882.96C204.8 1924.81 212.971 1960.7 247.17 1996.95L268.933 2020.01C277.872 2029.49 275.307 2035.02 271.188 2038.91C268.305 2041.63 261.877 2042.24 256.048 2036.06L217.574 1995.29L184.21 2026.76L228.124 2073.31C249.888 2096.38 287.582 2095.07 320.123 2064.37C361.313 2025.5 359.461 1978.98 331.479 1949.32L312.048 1928.73C284.844 1899.89 268.847 1871.39 296.033 1845.74L349.168 1795.6L414.458 1864.8C424.951 1875.93 423.848 1886.31 411.902 1897.58L387.188 1920.9L421.776 1957.56L575.827 1812.21ZM314.969 1759.36L265.129 1806.38C231.765 1837.86 198.485 1838.9 172.058 1810.89C149.129 1786.58 153.216 1756.26 192.346 1719.34L237.243 1676.98L314.969 1759.36Z" fill="white"/>
<path d="M673.827 3573.21L639.24 3536.55L614.525 3559.87C602.58 3571.14 592.15 3571.64 581.657 3560.52L419.599 3388.75C409.107 3377.63 410.21 3367.25 422.155 3355.98L446.869 3332.66L412.281 3296L245.873 3453.01C164.728 3529.57 154.153 3590.15 197.291 3635.87C225.272 3665.53 270.67 3674.86 324.047 3643.96C302.8 3685.81 310.971 3721.7 345.17 3757.95L366.933 3781.01C375.872 3790.49 373.307 3796.02 369.188 3799.91C366.305 3802.63 359.877 3803.24 354.048 3797.06L315.574 3756.29L282.21 3787.76L326.124 3834.31C347.888 3857.38 385.582 3856.07 418.123 3825.37C459.313 3786.5 457.461 3739.98 429.479 3710.32L410.048 3689.73C382.844 3660.89 366.847 3632.39 394.033 3606.74L447.168 3556.61L512.458 3625.8C522.951 3636.93 521.848 3647.31 509.902 3658.58L485.188 3681.9L519.776 3718.56L673.827 3573.21ZM412.969 3520.36L363.129 3567.38C329.765 3598.86 296.485 3599.9 270.058 3571.89C247.129 3547.58 251.216 3517.26 290.346 3480.34L335.243 3437.98L412.969 3520.36Z" fill="white"/>
<path d="M401.855 106.217C447.278 98.9124 495.999 112.113 504.028 162.039C512.486 214.639 455.137 233.007 395.116 251.805C302.111 281.395 240.934 321.414 253.98 402.543C266.023 477.432 332.609 505.137 415.439 491.817C477.784 481.791 529.851 453.297 557.704 404.918C576.799 438.431 613.163 460.02 663.039 452C721.822 442.547 758.204 407.429 748.742 348.588L737.703 279.94L679.81 289.25L690.85 357.898C692.57 368.596 688.373 376.588 679.467 378.02C672.342 379.166 665.707 372.002 664.13 362.195L630.009 150.011C615.672 60.8577 516.336 28.359 410.349 45.4029C313.269 61.0146 228.557 119.452 239.883 189.883C245.044 221.978 275.604 247.245 315.683 240.8C355.763 234.354 370.769 202.674 366.325 175.037C363.027 154.532 348.408 143.164 325.455 136.795C343.933 121.019 374.245 110.657 401.855 106.217ZM527.397 307.358C535.712 359.067 510.244 405.233 451.461 414.686C418.507 419.986 395.011 404.558 390.423 376.029C383.542 333.235 413.772 310.997 447.534 293.678C476.239 279.001 507.155 266.713 518.221 250.3L527.397 307.358Z" fill="white"/>
<path d="M425.235 2308.78C468.974 2317.04 531.268 2319 564.911 2308.76C590.577 2300.78 602.076 2287.87 619.764 2242.19C541.282 2249.99 493.031 2241.63 447.834 2233.1C382.955 2220.84 359.407 2209.61 276.551 2176.61L212.673 2442.87L262.189 2460.52C296.713 2437.62 330.673 2429.7 372.954 2437.69C430.543 2448.56 469.358 2498.89 457.254 2562.98C443.224 2637.26 391.19 2668.92 330.685 2657.49C281.114 2648.13 266.314 2638.55 250.566 2621.99C266.108 2619.65 292.957 2613.41 300.384 2574.08C305.749 2545.68 281.72 2517 246 2510.26C232.149 2507.64 178.975 2501.37 167.696 2561.09C153.528 2636.1 241.955 2699.57 336.723 2717.46C458.463 2740.46 560.617 2675.27 577.949 2583.51C587.99 2530.35 571.031 2416.27 404.823 2384.87C361.813 2376.75 317.51 2383.47 284.224 2399.81L316.452 2273.15C347.468 2288.81 390.973 2302.31 425.235 2308.78Z" fill="white"/>
<path d="M392.714 732.417C423.417 738.216 467.145 739.592 490.762 732.404C508.778 726.806 516.85 717.741 529.266 685.671C474.175 691.15 440.305 685.282 408.578 679.29C363.035 670.689 346.506 662.802 288.344 639.639L243.504 826.542L278.262 838.93C302.497 822.858 326.335 817.301 356.015 822.907C396.441 830.542 423.687 865.867 415.19 910.855C405.342 963 368.816 985.222 326.344 977.2C291.547 970.628 281.158 963.901 270.103 952.282C281.013 950.637 299.86 946.254 305.074 918.648C308.84 898.71 291.972 878.582 266.898 873.846C257.176 872.01 219.849 867.608 211.932 909.528C201.986 962.184 264.059 1006.73 330.582 1019.3C416.039 1035.44 487.748 989.682 499.913 925.268C506.962 887.949 495.058 807.869 378.386 785.834C348.195 780.132 317.096 784.847 293.73 796.318L316.353 707.406C338.125 718.401 368.664 727.875 392.714 732.417Z" fill="white"/>
<path d="M526.502 3990.07C564.243 4013.67 621.558 4038.15 656.622 4040.85C683.431 4042.75 698.838 4034.91 731.93 3998.78C655.982 3977.51 614.075 3952.18 575.077 3927.79C519.096 3892.78 501.247 3873.75 436.063 3812.88L279.732 4037.68L319.439 4072.13C359.926 4063.35 394.439 4068.33 430.921 4091.14C480.612 4122.22 498.469 4183.21 463.887 4238.51C423.803 4302.61 363.82 4313.17 311.613 4280.52C268.841 4253.78 258.539 4239.47 249.888 4218.32C265.219 4221.79 292.5 4225.74 313.72 4191.81C329.047 4167.3 317.091 4131.85 286.27 4112.57C274.319 4105.1 227.066 4079.92 194.841 4131.45C154.365 4196.17 213.657 4287.45 295.427 4338.59C400.471 4404.28 519.335 4380.71 568.851 4301.53C597.538 4255.66 623.227 4143.22 479.815 4053.54C442.704 4030.33 398.991 4020.47 362.041 4023.59L438.125 3917.32C461.321 3943.19 496.939 3971.58 526.502 3990.07Z" fill="white"/>
</g>
</svg>
