<svg width="122" height="52" viewBox="0 0 122 52" fill="none" xmlns="http://www.w3.org/2000/svg">
<g clip-path="url(#clip0)">
<rect x="-0.000244141" y="7.06299" width="38.8305" height="38.8305" rx="19.4152" fill="white"/>
<path d="M21.9114 31.8487H16.0119L14.8018 35.227H10.5159L16.9447 17.5791H21.4828L27.9116 35.227H23.1215L21.9114 31.8487ZM17.2977 28.3695H20.6256L18.9616 23.1256L17.2977 28.3695Z" fill="#F3525F"/>
<path d="M60.2054 33.0227H56.8131L52.6381 26.9838V33.0227H49.6559V19.9757H52.6381V25.6418L56.6268 19.9757H60.019L55.6203 26.3314L60.2054 33.0227ZM62.9032 33.0227V30.2269C63.6239 30.3387 64.1644 30.2269 64.5247 29.8914C64.8851 29.5559 65.0652 28.8725 65.0652 27.8412V19.9757H74.0863V33.0227H71.1042V22.846H68.0474V27.7293C68.0474 28.8352 67.8921 29.7734 67.5815 30.5438C67.2832 31.3142 66.8732 31.8795 66.3513 32.2399C65.8419 32.5878 65.3013 32.8239 64.7298 32.9482C64.1706 33.0724 63.5617 33.0973 62.9032 33.0227ZM86.9455 33.0227L86.2932 30.9725H81.4471L80.7948 33.0227H77.533L81.969 19.9757H85.7713L90.2073 33.0227H86.9455ZM82.3418 28.1767H85.3985L83.8702 23.3865L82.3418 28.1767ZM99.4017 33.2836C97.4508 33.2836 95.8293 32.6375 94.537 31.3452C93.2571 30.0405 92.6172 28.4252 92.6172 26.4992C92.6172 24.5732 93.2571 22.9641 94.537 21.6718C95.8293 20.3671 97.4508 19.7147 99.4017 19.7147C100.57 19.7147 101.651 19.9881 102.645 20.5348C103.639 21.0691 104.422 21.8023 104.993 22.7342L102.421 24.2253C102.135 23.7158 101.725 23.3244 101.191 23.051C100.657 22.7653 100.06 22.6224 99.4017 22.6224C98.2461 22.6224 97.3204 22.9765 96.6245 23.6848C95.9411 24.393 95.5994 25.3312 95.5994 26.4992C95.5994 27.6672 95.9411 28.6054 96.6245 29.3136C97.3204 30.0219 98.2461 30.376 99.4017 30.376C100.06 30.376 100.657 30.2331 101.191 29.9473C101.738 29.6615 102.148 29.2701 102.421 28.7731L104.993 30.2642C104.434 31.1961 103.657 31.9355 102.663 32.4822C101.669 33.0165 100.582 33.2836 99.4017 33.2836ZM114.764 33.2836C112.813 33.2836 111.192 32.6375 109.899 31.3452C108.619 30.0405 107.98 28.4252 107.98 26.4992C107.98 24.5732 108.619 22.9641 109.899 21.6718C111.192 20.3671 112.813 19.7147 114.764 19.7147C115.932 19.7147 117.013 19.9881 118.007 20.5348C119.001 21.0691 119.784 21.8023 120.356 22.7342L117.783 24.2253C117.498 23.7158 117.088 23.3244 116.553 23.051C116.019 22.7653 115.423 22.6224 114.764 22.6224C113.608 22.6224 112.683 22.9765 111.987 23.6848C111.303 24.393 110.962 25.3312 110.962 26.4992C110.962 27.6672 111.303 28.6054 111.987 29.3136C112.683 30.0219 113.608 30.376 114.764 30.376C115.423 30.376 116.019 30.2331 116.553 29.9473C117.1 29.6615 117.51 29.2701 117.783 28.7731L120.356 30.2642C119.796 31.1961 119.02 31.9355 118.026 32.4822C117.032 33.0165 115.944 33.2836 114.764 33.2836Z" fill="#202940"/>
</g>
<defs>
<clipPath id="clip0">
<rect width="122" height="52" fill="white"/>
</clipPath>
</defs>
</svg>
