<svg width="20" height="16" viewBox="0 0 20 16" fill="none" xmlns="http://www.w3.org/2000/svg">
<path fill-rule="evenodd" clip-rule="evenodd" d="M17.3333 0.666504H2.66665C1.65831 0.666504 0.84248 1.4915 0.84248 2.49984L0.833313 13.4998C0.833313 14.5082 1.65831 15.3332 2.66665 15.3332H17.3333C18.3416 15.3332 19.1666 14.5082 19.1666 13.4998V2.49984C19.1666 1.4915 18.3416 0.666504 17.3333 0.666504ZM16.9666 4.56234L10.4858 8.614C10.1925 8.79734 9.80748 8.79734 9.51415 8.614L3.03331 4.56234C2.80415 4.41567 2.66665 4.16817 2.66665 3.90234C2.66665 3.28817 3.33581 2.9215 3.85831 3.24234L9.99998 7.08317L16.1416 3.24234C16.6641 2.9215 17.3333 3.28817 17.3333 3.90234C17.3333 4.16817 17.1958 4.41567 16.9666 4.56234Z" fill="#D9DCE3"/>
</svg>
