<svg width="18" height="17" viewBox="0 0 18 17" fill="none" xmlns="http://www.w3.org/2000/svg">
<path d="M17.0999 12.7278V15.287C17.1009 15.5245 17.0522 15.7597 16.957 15.9774C16.8618 16.1951 16.7222 16.3905 16.5472 16.5511C16.3721 16.7117 16.1654 16.834 15.9404 16.9101C15.7153 16.9862 15.4768 17.0145 15.2402 16.9931C12.6152 16.7079 10.0937 15.8109 7.87829 14.3742C5.81715 13.0644 4.06966 11.317 2.75992 9.25581C1.31823 7.03034 0.42103 4.49657 0.141018 1.85976C0.119701 1.62386 0.147736 1.3861 0.223339 1.16163C0.298942 0.937162 0.420457 0.730892 0.580146 0.555956C0.739835 0.38102 0.9342 0.241251 1.15087 0.145549C1.36753 0.0498457 1.60175 0.000305764 1.83861 8.27064e-05H4.3978C4.8118 -0.0039919 5.21315 0.142611 5.52705 0.412566C5.84095 0.682521 6.04598 1.05741 6.10392 1.46735C6.21194 2.28635 6.41226 3.09049 6.70107 3.86445C6.81584 4.16979 6.84068 4.50162 6.77264 4.82063C6.70461 5.13965 6.54655 5.43248 6.31719 5.66442L5.2338 6.7478C6.44818 8.88348 8.21649 10.6518 10.3522 11.8662L11.4356 10.7828C11.6675 10.5534 11.9603 10.3954 12.2793 10.3273C12.5984 10.2593 12.9302 10.2841 13.2355 10.3989C14.0095 10.6877 14.8136 10.888 15.6326 10.9961C16.047 11.0545 16.4255 11.2632 16.696 11.5825C16.9665 11.9018 17.1103 12.3094 17.0999 12.7278Z" fill="#D9DCE3"/>
</svg>
