<svg width="112" height="37" viewBox="0 0 112 37" fill="none" xmlns="http://www.w3.org/2000/svg">
<rect y="0.499023" width="36" height="36" rx="18" fill="#F3525F"/>
<path d="M20.3148 23.4785H14.8454L13.7235 26.6105H9.75L15.7103 10.249H19.9175L25.8778 26.6105H21.4368L20.3148 23.4785ZM16.0375 20.2529H19.1228L17.5801 15.3912L16.0375 20.2529Z" fill="white"/>
<path d="M55.8173 24.9995H52.6723L48.8016 19.4008V24.9995H46.0368V12.9035H48.8016V18.1567L52.4995 12.9035H55.6445L51.5664 18.796L55.8173 24.9995Z" fill="white"/>
<path d="M58.3184 24.9995V22.4075C58.9866 22.5112 59.4877 22.4075 59.8218 22.0965C60.1559 21.7855 60.3229 21.1519 60.3229 20.1957V12.9035H68.6864V24.9995H65.9216V15.5647H63.0877V20.092C63.0877 21.1173 62.9437 21.9871 62.6557 22.7013C62.3792 23.4155 61.9991 23.9397 61.5152 24.2738C61.0429 24.5963 60.5418 24.8152 60.0119 24.9304C59.4935 25.0456 58.929 25.0687 58.3184 24.9995Z" fill="white"/>
<path d="M80.6083 24.9995L80.0035 23.0987H75.5107L74.9059 24.9995H71.8819L75.9945 12.9035H79.5196L83.6323 24.9995H80.6083ZM76.3401 20.5067H79.174L77.7571 16.0658L76.3401 20.5067Z" fill="white"/>
<path d="M92.1565 25.2415C90.3478 25.2415 88.8445 24.6424 87.6464 23.4443C86.4598 22.2347 85.8665 20.7371 85.8665 18.9515C85.8665 17.1659 86.4598 15.6741 87.6464 14.476C88.8445 13.2664 90.3478 12.6616 92.1565 12.6616C93.2393 12.6616 94.2416 12.9151 95.1632 13.4219C96.0848 13.9173 96.8105 14.597 97.3405 15.461L94.9558 16.8434C94.6909 16.3711 94.3107 16.0082 93.8153 15.7547C93.32 15.4898 92.767 15.3573 92.1565 15.3573C91.0851 15.3573 90.2269 15.6856 89.5817 16.3423C88.9481 16.9989 88.6313 17.8687 88.6313 18.9515C88.6313 20.0344 88.9481 20.9042 89.5817 21.5608C90.2269 22.2175 91.0851 22.5458 92.1565 22.5458C92.767 22.5458 93.32 22.4133 93.8153 22.1483C94.3222 21.8834 94.7024 21.5205 94.9558 21.0597L97.3405 22.4421C96.8221 23.3061 96.1021 23.9915 95.1805 24.4984C94.2589 24.9938 93.2509 25.2415 92.1565 25.2415Z" fill="white"/>
<path d="M106.399 25.2415C104.59 25.2415 103.087 24.6424 101.889 23.4443C100.702 22.2347 100.109 20.7371 100.109 18.9515C100.109 17.1659 100.702 15.6741 101.889 14.476C103.087 13.2664 104.59 12.6616 106.399 12.6616C107.482 12.6616 108.484 12.9151 109.406 13.4219C110.327 13.9173 111.053 14.597 111.583 15.461L109.198 16.8434C108.933 16.3711 108.553 16.0082 108.058 15.7547C107.562 15.4898 107.01 15.3573 106.399 15.3573C105.328 15.3573 104.469 15.6856 103.824 16.3423C103.191 16.9989 102.874 17.8687 102.874 18.9515C102.874 20.0344 103.191 20.9042 103.824 21.5608C104.469 22.2175 105.328 22.5458 106.399 22.5458C107.01 22.5458 107.562 22.4133 108.058 22.1483C108.565 21.8834 108.945 21.5205 109.198 21.0597L111.583 22.4421C111.065 23.3061 110.345 23.9915 109.423 24.4984C108.501 24.9938 107.493 25.2415 106.399 25.2415Z" fill="white"/>
</svg>
