<svg width="11" height="19" viewBox="0 0 11 19" fill="none" xmlns="http://www.w3.org/2000/svg">
<path d="M5.51069 10.0378C8.09832 10.0378 10.2128 7.93816 10.2128 5.33575C10.198 2.74812 8.09832 0.648438 5.51069 0.648438C2.92306 0.648438 0.808594 2.74811 0.808594 5.35053C0.808594 7.93816 2.90827 10.0378 5.51069 10.0378ZM5.51069 3.39872C6.5901 3.39872 7.4625 4.27112 7.4625 5.35053C7.4625 6.41516 6.5901 7.28756 5.51069 7.28756C4.44606 7.28756 3.55888 6.41516 3.55888 5.35053C3.55888 4.27112 4.43128 3.39872 5.51069 3.39872Z" fill="#F3525F"/>
<path d="M7.40418 13.8672C8.3653 13.6454 9.28206 13.2757 10.1249 12.7434C10.7607 12.3442 10.9677 11.4866 10.5537 10.8508C10.1545 10.2002 9.29685 10.0079 8.66103 10.422C6.73879 11.6345 4.25466 11.6345 2.33242 10.422C1.69661 10.0079 0.853779 10.2002 0.439758 10.8508C0.0405232 11.4866 0.232747 12.3442 0.868565 12.7434C1.71139 13.2757 2.64294 13.6602 3.58927 13.8672L0.97207 16.4992C0.439758 17.0315 0.439758 17.9039 0.97207 18.451C1.23823 18.7172 1.5931 18.8502 1.94798 18.8502C2.30285 18.8502 2.65773 18.7172 2.92388 18.451L5.49673 15.8634L8.08436 18.451C8.61667 18.9833 9.48907 18.9833 10.0362 18.451C10.5685 17.9187 10.5685 17.0463 10.0362 16.4992L7.40418 13.8672Z" fill="#F3525F"/>
</svg>
