<svg width="18" height="10" viewBox="0 0 18 10" fill="none" xmlns="http://www.w3.org/2000/svg">
<path d="M8.49461 9.93976H9.49677C9.49677 9.93976 9.79947 9.90586 9.95425 9.73637C10.0963 9.58084 10.0924 9.28871 10.0924 9.28871C10.0924 9.28871 10.0728 7.92081 10.6968 7.71941C11.312 7.52101 12.1016 9.04145 12.9392 9.6267C13.572 10.0694 14.053 9.97266 14.053 9.97266L16.2914 9.94076C16.2914 9.94076 17.4621 9.86698 16.9066 8.93078C16.8616 8.85401 16.5834 8.23786 15.2423 6.97066C13.8385 5.64463 14.0265 5.85899 15.7174 3.56586C16.747 2.16904 17.1584 1.31659 17.0301 0.951688C16.9076 0.60373 16.1504 0.695456 16.1504 0.695456L13.6298 0.711408C13.6298 0.711408 13.4427 0.685485 13.3046 0.770232C13.1694 0.852984 13.0822 1.04541 13.0822 1.04541C13.0822 1.04541 12.6835 2.12617 12.1515 3.04542C11.0289 4.98461 10.5802 5.0873 10.397 4.96666C9.96993 4.6855 10.0767 3.83904 10.0767 3.23784C10.0767 1.35847 10.3569 0.574817 9.53106 0.371426C9.25676 0.304626 9.05496 0.259761 8.35453 0.252782C7.45425 0.241815 6.69407 0.253779 6.26303 0.468137C5.976 0.610709 5.75559 0.929754 5.88979 0.9477C6.05633 0.970631 6.43349 1.05139 6.63333 1.32856C6.89195 1.68649 6.88215 2.48908 6.88215 2.48908C6.88215 2.48908 7.03106 4.70145 6.53537 4.97663C6.19544 5.16507 5.73012 4.78022 4.72894 3.02049C4.21758 2.11919 3.83062 1.12317 3.83062 1.12317C3.83062 1.12317 3.75519 0.936733 3.62294 0.837031C3.46131 0.716393 3.23599 0.678506 3.23599 0.678506L0.840813 0.694459C0.840813 0.694459 0.481291 0.704429 0.349042 0.863951C0.231487 1.00553 0.339245 1.29865 0.339245 1.29865C0.339245 1.29865 2.21425 5.76228 4.33709 8.01154C6.28458 10.0754 8.49461 9.93976 8.49461 9.93976Z" fill="#F3525F"/>
</svg>
